<svg width="52" height="56" viewBox="0 0 52 56" fill="none" xmlns="http://www.w3.org/2000/svg">
<g filter="url(#filter0_d_1110_7264)">
<path fill-rule="evenodd" clip-rule="evenodd" d="M28.6688 36.6685C29.0063 36.1085 29.6006 35.7536 30.2511 35.6884C37.9337 34.9183 40 31.5118 40 21.9351C40 10.787 37.2 8 26 8C14.8 8 12 10.787 12 21.9351C12 31.5118 14.0663 34.9183 21.7489 35.6884C22.3994 35.7536 22.9937 36.1085 23.3312 36.6685L24.2871 38.2543C25.0647 39.5443 26.9353 39.5443 27.7129 38.2543L28.6688 36.6685Z" fill="white"/>
<path opacity="0.6" d="M37.6666 21.9351C37.6666 31.2251 35.3333 33.5476 25.9999 33.5476C16.6666 33.5476 14.3333 31.2251 14.3333 21.9351C14.3333 12.645 16.6666 10.3225 25.9999 10.3225C35.3333 10.3225 37.6666 12.645 37.6666 21.9351Z" fill="#FEE01E"/>
<g clip-path="url(#clip0_1110_7264)">
<path d="M32.7921 22.9943H31.16V22.5724H32.792C32.9068 22.5724 32.9999 22.4798 32.9999 22.3655C32.9999 22.2512 32.9068 22.1585 32.792 22.1585H32.085V20.2974C32.2686 20.4665 32.4673 20.6194 32.6803 20.7545C32.7149 20.7764 32.7536 20.7869 32.7918 20.7869C32.8605 20.7869 32.9277 20.7531 32.9674 20.6912C33.0291 20.5948 33.0006 20.4668 32.9037 20.4054C32.5101 20.1558 32.1699 19.8392 31.8925 19.4645C31.4143 18.8195 31.1611 18.0532 31.1599 17.2485V17.243C31.1599 17.1287 31.0669 17.036 30.952 17.036H29.9733C29.8585 17.036 29.7654 17.1287 29.7654 17.243C29.7654 19.3093 28.0768 20.9904 26.001 20.991L25.9999 20.9909L25.9988 20.991C23.9231 20.9904 22.2345 19.3093 22.2345 17.243C22.2345 17.1287 22.1414 17.036 22.0266 17.036H21.0479C20.9331 17.036 20.84 17.1287 20.84 17.243V17.2485C20.8388 18.0532 20.5857 18.8194 20.1074 19.4646C19.8301 19.8392 19.4899 20.1557 19.0962 20.4054C18.9994 20.4668 18.9709 20.5948 19.0326 20.6912C19.0723 20.7531 19.1394 20.7869 19.2081 20.7869C19.2464 20.7869 19.285 20.7764 19.3197 20.7545C19.5326 20.6194 19.7314 20.4665 19.915 20.2974V22.1585H19.208C19.0931 22.1585 19.0001 22.2512 19.0001 22.3655C19.0001 22.4798 19.0931 22.5724 19.208 22.5724H20.84V22.9943H19.2079C19.0931 22.9943 19 23.087 19 23.2013C19 23.3156 19.0931 23.4083 19.2079 23.4083H20.84V24.7134H20.7755C20.6606 24.7134 20.5675 24.8061 20.5675 24.9204V25.5315C20.5675 25.6457 20.6606 25.7384 20.7755 25.7384C20.8903 25.7384 20.9834 25.6457 20.9834 25.5315V25.1273H22.0913V25.9088C22.0913 26.0231 22.1844 26.1158 22.2992 26.1158C22.4141 26.1158 22.5072 26.0231 22.5072 25.9088V24.9204C22.5072 24.8061 22.4141 24.7134 22.2992 24.7134H22.2345V23.4083H29.7655V24.7134H29.7008C29.586 24.7134 29.4929 24.8061 29.4929 24.9204V25.9088C29.4929 26.0231 29.586 26.1158 29.7008 26.1158C29.8157 26.1158 29.9088 26.0231 29.9088 25.9088V25.1273H31.0167V25.5315C31.0167 25.6457 31.1098 25.7384 31.2246 25.7384C31.3395 25.7384 31.4325 25.6457 31.4325 25.5315V24.9204C31.4325 24.8061 31.3395 24.7134 31.2246 24.7134H31.16V23.4083H32.7921C32.907 23.4083 33.0001 23.3156 33.0001 23.2013C33.0001 23.087 32.9069 22.9943 32.7921 22.9943ZM31.16 19.0557C31.2712 19.2836 31.4039 19.5025 31.5578 19.7102C31.594 19.7589 31.6311 19.8068 31.6692 19.8538V22.1585H31.16V19.0557ZM21.8187 24.7133H21.2559V19.1908C21.2559 19.0765 21.1628 18.9838 21.0479 18.9838C20.9331 18.9838 20.84 19.0765 20.84 19.1908V22.1585H20.3308V19.8538C20.3688 19.8068 20.406 19.759 20.4421 19.7102C20.596 19.5026 20.7288 19.2837 20.84 19.0557V19.6621C20.84 19.7764 20.9331 19.8691 21.048 19.8691C21.1628 19.8691 21.2559 19.7764 21.2559 19.6621V17.4499H21.8187V24.7133ZM28.2402 20.7556C28.4542 20.6199 28.655 20.4653 28.8403 20.2942V22.1585H28.2402V20.7556ZM27.2242 21.2227C27.4315 21.1594 27.632 21.0805 27.8243 20.9873V22.1585H27.2242V21.2227ZM26.2078 21.3997C26.4122 21.3897 26.6126 21.3648 26.8083 21.3265V22.1585H26.2078V21.3997ZM25.1919 21.3266C25.3874 21.3648 25.5878 21.3897 25.792 21.3997V22.1585H25.1919V21.3266ZM24.1755 20.9872C24.368 21.0805 24.5686 21.1595 24.776 21.2228V22.1585H24.1755V20.9872ZM23.1596 20.2941C23.3449 20.4652 23.5456 20.6199 23.7597 20.7556V22.1585H23.1596V20.2941ZM22.2345 19.0515C22.3738 19.3376 22.5451 19.6054 22.7437 19.8505V22.1585H22.2345V19.0515ZM29.7655 22.9943H22.2345V22.5724H29.7655V22.9943ZM29.7655 22.1585H29.2561V19.8507C29.4547 19.6055 29.6262 19.3376 29.7655 19.0515V22.1585ZM30.7441 24.7133H30.1813V17.4499H30.7441V24.7133Z" fill="#996700"/>
<path d="M32.7919 26.4201C32.4294 26.4201 32.2567 26.3079 32.0567 26.1779C31.8334 26.0327 31.5803 25.8682 31.0939 25.8682C30.6075 25.8682 30.3544 26.0327 30.1311 26.1778C29.9606 26.2886 29.8133 26.3843 29.5537 26.4119C29.504 26.4173 29.4509 26.4201 29.3959 26.4201C29.0331 26.4201 28.8604 26.3078 28.6604 26.1778C28.4371 26.0326 28.1841 25.8682 27.6978 25.8682C27.4266 25.8682 27.2005 25.9188 26.9862 26.0277C26.884 26.0797 26.8434 26.2043 26.8956 26.3062C26.9478 26.408 27.0731 26.4483 27.1753 26.3964C27.28 26.3432 27.4341 26.2821 27.6978 26.2821C28.0603 26.2821 28.233 26.3943 28.433 26.5243C28.6563 26.6695 28.9094 26.834 29.3959 26.834C29.4659 26.834 29.5342 26.8304 29.5984 26.8235C29.957 26.7853 30.1703 26.6467 30.3585 26.5244C30.5585 26.3944 30.7312 26.2821 31.0939 26.2821C31.4566 26.2821 31.6293 26.3944 31.8293 26.5244C32.0526 26.6696 32.3056 26.834 32.7919 26.834C32.9067 26.834 32.9998 26.7414 32.9998 26.6271C32.9998 26.5128 32.9067 26.4201 32.7919 26.4201Z" fill="#996700"/>
<path d="M26.7236 26.449C26.679 26.3437 26.557 26.2943 26.4512 26.3388C26.319 26.3943 26.1755 26.4202 25.9998 26.4202C25.6372 26.4202 25.4645 26.3079 25.2646 26.178C25.0412 26.0328 24.7882 25.8683 24.3017 25.8683C23.8154 25.8683 23.5624 26.0328 23.3392 26.1779C23.1392 26.3079 22.9666 26.4202 22.604 26.4202C22.5489 26.4202 22.4958 26.4174 22.4456 26.412C22.1863 26.3844 22.0389 26.2887 21.8683 26.1778C21.6451 26.0327 21.3921 25.8683 20.9059 25.8683C20.4197 25.8683 20.1666 26.0328 19.9434 26.1779C19.7434 26.3079 19.5707 26.4202 19.2079 26.4202C19.0931 26.4202 19 26.5129 19 26.6272C19 26.7415 19.0931 26.8341 19.2079 26.8341C19.6944 26.8341 19.9475 26.6696 20.1707 26.5245C20.3707 26.3945 20.5434 26.2822 20.9059 26.2822C21.2684 26.2822 21.4411 26.3944 21.641 26.5244C21.8293 26.6467 22.0426 26.7854 22.4009 26.8235C22.4656 26.8306 22.5339 26.8341 22.604 26.8341C23.0903 26.8341 23.3433 26.6696 23.5666 26.5245C23.7665 26.3945 23.9392 26.2822 24.3018 26.2822C24.6645 26.2822 24.8372 26.3945 25.0372 26.5245C25.2605 26.6696 25.5135 26.8341 25.9998 26.8341C26.2297 26.8341 26.4303 26.7968 26.6129 26.7201C26.7186 26.6757 26.7682 26.5543 26.7236 26.449Z" fill="#996700"/>
</g>
</g>
<defs>
<filter id="filter0_d_1110_7264" x="0" y="0" width="52" height="56" filterUnits="userSpaceOnUse" color-interpolation-filters="sRGB">
<feFlood flood-opacity="0" result="BackgroundImageFix"/>
<feColorMatrix in="SourceAlpha" type="matrix" values="0 0 0 0 0 0 0 0 0 0 0 0 0 0 0 0 0 0 127 0" result="hardAlpha"/>
<feOffset dy="4"/>
<feGaussianBlur stdDeviation="6"/>
<feColorMatrix type="matrix" values="0 0 0 0 0.0156863 0 0 0 0 0.521569 0 0 0 0 0.466667 0 0 0 0.2 0"/>
<feBlend mode="normal" in2="BackgroundImageFix" result="effect1_dropShadow_1110_7264"/>
<feBlend mode="normal" in="SourceGraphic" in2="effect1_dropShadow_1110_7264" result="shape"/>
</filter>
<clipPath id="clip0_1110_7264">
<rect width="14" height="13.9351" fill="white" transform="translate(19 14.9675)"/>
</clipPath>
</defs>
</svg>
